<?xml version="1.0" standalone="no"?>
<!DOCTYPE svg PUBLIC "-//W3C//DTD SVG 20010904//EN"
 "http://www.w3.org/TR/2001/REC-SVG-20010904/DTD/svg10.dtd">
<svg version="1.0" xmlns="http://www.w3.org/2000/svg"
 width="300.000000pt" height="300.000000pt" viewBox="0 0 300.000000 300.000000"
 preserveAspectRatio="xMidYMid meet">
<metadata>
Created by potrace 1.10, written by Peter Selinger 2001-2011
</metadata>
<g transform="translate(0.000000,300.000000) scale(0.100000,-0.100000)"
fill="#fdc00d" stroke="none">
<path d="M1447 2979 c-10 -6 -32 -41 -49 -77 -17 -37 -54 -117 -84 -179 -29
-62 -55 -121 -59 -132 -3 -12 -10 -21 -14 -21 -4 0 -13 -17 -20 -37 -8 -21
-28 -69 -46 -108 -49 -107 -168 -360 -171 -363 -1 -2 -17 -5 -36 -7 -18 -3
-58 -7 -88 -11 -30 -4 -65 -7 -77 -7 -13 1 -23 -3 -23 -7 0 -4 -10 -8 -22 -8
-21 1 -85 -7 -148 -17 -117 -20 -289 -47 -405 -65 -76 -12 -148 -26 -158 -32
-31 -16 -47 -66 -33 -103 7 -20 137 -161 346 -375 242 -247 335 -348 334 -364
-1 -11 -5 -41 -9 -66 -4 -25 -7 -55 -6 -67 0 -13 -4 -23 -10 -23 -5 0 -7 -4
-4 -10 3 -5 1 -38 -6 -72 -13 -72 -15 -86 -23 -149 -4 -25 -9 -57 -11 -70 -93
-542 -95 -568 -29 -595 40 -17 51 -13 246 95 79 43 153 82 166 85 12 4 22 12
22 18 0 6 3 8 7 5 3 -4 13 -1 21 5 8 7 22 17 32 23 52 29 312 173 355 196 l50
27 3 1261 c2 1196 1 1261 -15 1261 -10 0 -26 -5 -36 -11z m21 -154 c0 -78 -4
-123 -10 -119 -5 4 -3 -7 6 -24 8 -16 12 -32 9 -36 -3 -3 -5 -29 -4 -57 1 -45
-1 -50 -16 -45 -16 6 -16 6 -1 -11 24 -26 23 -229 -1 -258 -14 -18 -14 -18 0
-7 15 11 17 -4 17 -182 0 -107 3 -199 7 -205 9 -15 -8 -14 -25 1 -8 7 -7 4 2
-7 13 -16 16 -43 16 -130 0 -68 -5 -116 -12 -124 -8 -12 -8 -13 2 -7 9 5 12
-11 12 -71 0 -49 -5 -84 -12 -92 -8 -8 -8 -11 -2 -8 9 5 12 -56 12 -231 0
-206 -2 -240 -16 -257 -16 -18 -16 -19 0 -6 16 12 17 7 17 -66 0 -58 -5 -83
-17 -98 -16 -18 -16 -19 0 -7 16 13 17 8 16 -60 0 -51 -5 -78 -16 -91 -8 -9
-12 -20 -9 -24 4 -3 7 -1 7 5 0 7 5 12 10 12 6 0 10 -16 10 -36 0 -33 -2 -35
-17 -23 -17 13 -17 13 0 -7 28 -34 22 -67 -17 -88 -19 -10 -40 -15 -47 -11 -8
5 -10 4 -5 -4 4 -6 0 -14 -11 -18 -10 -3 -30 -15 -45 -25 -16 -11 -32 -16 -38
-13 -5 3 -10 2 -10 -4 0 -12 -109 -75 -117 -67 -3 3 -21 -8 -39 -24 -22 -19
-40 -27 -51 -23 -10 4 -14 2 -10 -5 4 -6 -5 -17 -20 -25 -125 -65 -170 -87
-181 -87 -7 0 -11 -4 -8 -8 3 -5 -11 -17 -31 -26 -35 -17 -36 -17 -23 1 8 10
1 6 -15 -9 -17 -14 -58 -43 -92 -62 -60 -35 -64 -36 -87 -21 -25 16 -36 45
-32 80 9 77 20 125 28 125 5 0 5 7 0 18 -5 9 -6 26 -1 37 4 11 8 35 8 53 1 17
4 32 9 32 4 0 8 23 9 50 2 67 11 102 25 94 7 -5 8 -1 0 11 -12 23 -4 93 15
122 9 13 10 23 4 27 -6 4 -6 18 0 39 5 17 9 47 9 65 0 19 4 31 10 27 6 -3 7 1
4 10 -4 8 -1 22 6 30 9 11 9 15 1 15 -7 0 -10 4 -6 10 3 5 6 25 7 45 1 27 5
35 16 30 12 -4 12 -3 3 9 -9 10 -10 25 -3 49 13 46 5 81 -24 108 -28 26 -33
48 -6 28 9 -7 0 5 -21 28 -21 22 -46 40 -55 39 -12 -1 -16 6 -14 23 2 20 0 22
-12 12 -12 -10 -17 -9 -24 6 -6 10 -10 23 -11 28 -1 6 -7 10 -13 10 -7 0 -18
11 -25 25 -6 14 -25 37 -40 50 l-28 25 29 -33 c17 -17 26 -31 20 -31 -5 1 -49
45 -99 98 -49 52 -79 87 -65 76 l25 -20 -24 27 c-13 15 -27 25 -31 23 -4 -3
-16 5 -26 18 -19 21 -19 21 1 7 11 -8 7 0 -10 18 -16 17 -36 32 -44 32 -8 0
-11 3 -8 7 9 9 -13 34 -24 27 -5 -3 -8 0 -7 8 2 7 -3 12 -10 10 -8 -1 -11 2
-8 7 3 5 -23 34 -57 65 -35 31 -70 67 -77 80 -27 51 52 87 213 100 19 2 39 6
44 9 6 4 36 7 67 8 31 1 56 6 56 11 0 5 15 9 33 9 60 -1 102 4 108 12 3 4 37
8 76 10 39 1 69 5 67 9 -2 3 22 9 53 13 91 10 115 13 158 24 22 6 48 8 58 5 9
-3 17 -1 17 4 0 6 11 13 24 16 19 5 34 25 62 86 21 44 41 80 46 80 4 0 5 6 2
13 -2 7 9 32 26 55 17 24 30 48 29 55 -2 7 21 60 49 120 29 59 52 111 52 116
0 5 7 14 16 21 19 17 41 56 25 46 -6 -4 -11 -3 -11 3 0 5 8 14 18 20 9 5 15
12 14 16 -5 9 32 95 41 95 4 0 7 7 7 15 0 21 51 125 61 125 5 0 9 9 9 20 0 11
4 20 9 20 6 0 10 -53 9 -125z m-803 -1663 c-7 -7 -45 29 -45 41 0 6 11 0 25
-13 14 -13 23 -26 20 -28z"/>
</g>
</svg>
